<svg width="144" height="144" viewBox="0 0 144 144" fill="none" xmlns="http://www.w3.org/2000/svg">
<path d="M110.792 66.8135C110.792 40.5161 83.0711 23.2788 55.3958 23.2788C27.61 23.2788 0 40.5971 0 66.8135C0 76.7318 4.34391 86.4307 12.2318 94.124C12.5336 94.4185 12.6492 94.8654 12.5333 95.2901C10.0558 104.366 4.18781 112.565 1.78003 115.669C1.03106 116.635 0.907875 117.912 1.45884 119.002C1.99744 120.068 3.06225 120.721 4.25194 120.721C4.27894 120.721 4.30566 120.721 4.33266 120.72C16.1151 120.426 29.7723 117.101 38.2143 108.801C38.5093 108.511 38.9326 108.396 39.3472 108.495C44.534 109.725 49.9337 110.349 55.3958 110.349C83.1735 110.348 110.792 93.037 110.792 66.8135ZM40.3206 104.39C38.4865 103.954 36.5929 104.479 35.2567 105.793C26.8144 114.093 13.0289 115.98 6.50306 116.399C9.48403 112.284 14.3308 104.727 16.6033 96.4007C17.1228 94.4978 16.5763 92.4683 15.1774 91.1037C8.00831 84.1115 4.21875 75.712 4.21875 66.8135C4.21875 45.1347 27.1766 27.4976 55.3958 27.4976C83.6151 27.4976 106.573 45.1345 106.573 66.8135C106.573 88.4925 83.6151 106.129 55.3958 106.129C50.2611 106.129 45.1893 105.544 40.3206 104.39Z" fill="#26611D"/>
<path d="M124.359 101.863C136.658 95.6477 144 85.0545 144 73.526C144 57.2329 129.272 43.3111 108.979 40.4223C107.827 40.2587 106.758 41.0599 106.594 42.2133C106.43 43.3667 107.231 44.4347 108.385 44.5989C126.577 47.1887 139.781 59.3541 139.781 73.526C139.781 83.4294 133.304 92.6153 122.456 98.098C120.346 99.1642 119.216 101.521 119.707 103.83C120.736 108.663 122.925 113.139 124.677 116.173C112.22 114.099 107.499 108.122 106.006 105.535C105.084 103.938 103.361 102.948 101.501 102.948C101.495 102.948 101.49 102.948 101.484 102.948L101.33 102.948C98.9905 102.948 96.6483 102.786 94.3688 102.466C93.2182 102.304 92.1486 103.108 91.9866 104.261C91.8246 105.415 92.6284 106.481 93.7821 106.643C96.2554 106.991 98.7948 107.167 101.33 107.167L101.501 107.167H101.504C101.857 107.167 102.181 107.349 102.351 107.644C108.065 117.544 121.197 120.072 126.579 120.7C127.767 120.838 128.9 120.295 129.534 119.279C130.166 118.266 130.158 117.011 129.513 116.005C127.892 113.481 124.999 108.429 123.834 102.952C123.741 102.514 123.957 102.066 124.359 101.863Z" fill="#52BE41"/>
<path d="M22.5723 59.2686C18.5411 59.2686 15.2617 62.5482 15.2617 66.5791C15.2617 70.61 18.5411 73.8896 22.5723 73.8896C26.6034 73.8896 29.8828 70.61 29.8828 66.5791C29.8828 62.5482 26.6034 59.2686 22.5723 59.2686ZM22.5723 69.6712C20.8673 69.6712 19.4805 68.284 19.4805 66.5794C19.4805 64.8747 20.8676 63.4876 22.5723 63.4876C24.2769 63.4876 25.664 64.8747 25.664 66.5794C25.664 68.284 24.2769 69.6712 22.5723 69.6712Z" fill="#26611D"/>
<path d="M43.4282 59.2686C39.397 59.2686 36.1177 62.5482 36.1177 66.5791C36.1177 70.61 39.397 73.8896 43.4282 73.8896C47.4594 73.8896 50.7387 70.61 50.7387 66.5791C50.7387 62.5482 47.4594 59.2686 43.4282 59.2686ZM43.4282 69.6712C41.7233 69.6712 40.3364 68.284 40.3364 66.5794C40.3364 64.8747 41.7235 63.4876 43.4282 63.4876C45.1329 63.4876 46.52 64.8747 46.52 66.5794C46.52 68.284 45.1331 69.6712 43.4282 69.6712Z" fill="#26611D"/>
<path d="M64.2837 59.2686C60.2525 59.2686 56.9731 62.5482 56.9731 66.5791C56.9731 70.61 60.2525 73.8896 64.2837 73.8896C68.3148 73.8896 71.5942 70.61 71.5942 66.5791C71.5942 62.5482 68.3148 59.2686 64.2837 59.2686ZM64.2837 69.6712C62.5787 69.6712 61.1919 68.284 61.1919 66.5794C61.1919 64.8747 62.579 63.4876 64.2837 63.4876C65.9883 63.4876 67.3755 64.8747 67.3755 66.5794C67.3755 68.284 65.9886 69.6712 64.2837 69.6712Z" fill="#26611D"/>
<path d="M85.1391 59.2686C81.108 59.2686 77.8286 62.5482 77.8286 66.5791C77.8286 70.61 81.108 73.8896 85.1391 73.8896C89.1703 73.8896 92.4497 70.61 92.4497 66.5791C92.4497 62.5482 89.1703 59.2686 85.1391 59.2686ZM85.1391 69.6712C83.4342 69.6712 82.0474 68.284 82.0474 66.5794C82.0474 64.8747 83.4345 63.4876 85.1391 63.4876C86.8438 63.4876 88.2309 64.8747 88.2309 66.5794C88.2309 68.284 86.8438 69.6712 85.1391 69.6712Z" fill="#26611D"/>
</svg>
