<svg width="128" height="114" viewBox="0 0 128 114" fill="none" xmlns="http://www.w3.org/2000/svg">
<path d="M64 113.879C62.1777 113.879 60.4209 113.219 59.0518 112.02C53.8809 107.498 48.8955 103.249 44.4971 99.501L44.4746 99.4814C31.5791 88.4922 20.4434 79.002 12.6953 69.6533C4.03418 59.2021 0 49.293 0 38.4678C0 27.9502 3.60645 18.2471 10.1543 11.1445C16.7803 3.95801 25.8721 0 35.7578 0C43.1465 0 49.9131 2.33594 55.8691 6.94238C58.875 9.26758 61.5996 12.1133 64 15.4326C66.4014 12.1133 69.125 9.26758 72.1318 6.94238C78.0879 2.33594 84.8545 0 92.2432 0C102.128 0 111.221 3.95801 117.847 11.1445C124.395 18.2471 128 27.9502 128 38.4678C128 49.293 123.967 59.2021 115.306 69.6523C107.558 79.002 96.4229 88.4912 83.5293 99.4795C79.123 103.233 74.1299 107.489 68.9473 112.021C67.5791 113.219 65.8213 113.879 64 113.879ZM35.7578 7.49805C27.9912 7.49805 20.8564 10.5977 15.666 16.2266C10.3984 21.9404 7.49707 29.8389 7.49707 38.4678C7.49707 47.5723 10.8809 55.7148 18.4678 64.8691C25.8008 73.7178 36.708 83.0127 49.3369 93.7754L49.3604 93.7949C53.7754 97.5576 58.7803 101.823 63.9893 106.378C69.2295 101.814 74.2422 97.542 78.666 93.7734C91.2939 83.0107 102.2 73.7178 109.533 64.8691C117.119 55.7148 120.503 47.5723 120.503 38.4678C120.503 29.8389 117.602 21.9404 112.334 16.2266C107.145 10.5977 100.009 7.49805 92.2432 7.49805C86.5537 7.49805 81.3301 9.30664 76.7178 12.873C72.6074 16.0527 69.7441 20.0723 68.0654 22.8848C67.2021 24.3311 65.6826 25.1943 64 25.1943C62.3174 25.1943 60.7979 24.3311 59.9346 22.8848C58.2568 20.0723 55.3936 16.0527 51.2822 12.873C46.6699 9.30664 41.4463 7.49805 35.7578 7.49805Z" fill="#26611D"/>
</svg>
