<svg width="128" height="142" viewBox="0 0 128 142" fill="none" xmlns="http://www.w3.org/2000/svg">
<path d="M125.032 73.9558C118.526 67.4798 111.006 73.541 111.006 73.541V39.4496C111.006 38.3047 110.078 37.3759 108.934 37.3759C107.788 37.3759 106.86 38.3047 106.86 39.4496V76.4582C106.86 76.4582 96.9721 84.2528 92.7222 86.158V24.7751C92.7222 21.9216 95.0432 19.6006 97.8966 19.6006H101.685C104.539 19.6006 106.86 21.9216 106.86 24.7751V30.9605C106.86 32.1064 107.788 33.0341 108.934 33.0341C110.078 33.0341 111.006 32.1064 111.006 30.9605V24.7751C111.006 19.6352 106.825 15.4543 101.685 15.4543H97.8966C92.7567 15.4543 88.5748 19.6352 88.5748 24.7751V87.8019C87.3382 88.1485 86.0691 88.384 84.7796 88.5082V44.7915C84.7796 39.6256 80.5771 35.4232 75.4124 35.4232H71.7154C66.5507 35.4232 62.3482 39.6256 62.3482 44.7915V65.9192L58.5519 67.9345V60.9035C58.5519 56.2528 54.7685 52.4695 50.119 52.4695H44.5546C39.9039 52.4695 36.1216 56.2528 36.1216 60.9035V79.8409L29.3509 83.4342L10.3379 88.8679C7.02972 89.8129 4.26698 91.9794 2.56052 94.9668C0.852976 97.9553 0.38964 101.435 1.25583 104.765L3.38243 112.947C3.66972 114.055 4.8016 114.72 5.9108 114.432C7.01892 114.144 7.68422 113.012 7.39585 111.903L5.26926 103.722C4.03585 98.9759 6.76295 94.2022 11.4784 92.8554L28.8616 87.8872L41.9269 122.757C42.8017 125.092 42.6634 131.754 35.7523 134.209L22.6158 137.193C18.0375 138.232 13.5262 135.488 12.3446 130.943L9.67797 120.681C9.3896 119.573 8.25772 118.908 7.1496 119.195C6.0404 119.484 5.37618 120.616 5.66347 121.725L8.33117 131.987C9.83026 137.753 14.9518 141.562 20.6533 141.562C24.8428 141.562 36.6714 138.253 36.6714 138.253C40.2712 137.436 43.3406 135.103 45.0914 131.854C46.5365 129.174 46.9652 126.089 46.3453 123.15L91.7933 112.024C95.5519 111.103 99.1203 109.317 102.11 106.86L124.227 88.6875C130.97 82.7073 127.014 75.929 125.032 73.9558ZM71.7154 39.5705H75.4124C78.2907 39.5705 80.6322 41.9131 80.6322 44.7915V88.6119L67.5475 88.6065C66.3455 88.5957 67.1771 87.8019 67.243 87.7478L71.0112 84.6957C74.5267 81.8476 76.8229 77.8882 77.8349 72.9254C78.4775 69.7771 77.2765 66.6255 74.7028 64.7009C72.2986 62.9037 69.2065 62.5581 66.4956 63.7461V44.7915C66.4956 41.9131 68.8371 39.5705 71.7154 39.5705ZM40.269 60.9035C40.269 58.5404 42.1915 56.6168 44.5546 56.6168H50.119C52.4821 56.6168 54.4056 58.5404 54.4056 60.9035V70.1357L40.2679 77.6398V60.9035H40.269ZM121.595 85.4841L99.4767 103.657C96.9646 105.722 93.9664 107.222 90.8073 107.995L45.0244 119.205L32.712 86.347L67.8672 67.6861C69.2961 66.9269 70.9237 67.0532 72.2187 68.022C73.5137 68.9908 74.0947 70.5137 73.7718 72.097C72.9564 76.0921 71.1495 79.2469 68.4008 81.4728L64.6325 84.5261C63.0881 85.7768 62.5189 87.7954 63.182 89.6692C63.8452 91.542 65.5581 92.7538 67.5454 92.7538L82.6541 92.7603H82.6648C88.0434 92.7603 93.2125 91.1251 97.6126 88.0308L114.498 76.1569C116.862 74.4936 120.045 74.7874 122.065 76.8546C123.228 78.0426 125.505 81.5733 121.595 85.4841Z" fill="#26611D"/>
<path d="M10.9033 65.108L41.0472 34.7319L47.8277 38.2388C50.2567 39.4949 53.2128 39.065 55.1828 37.1685L71.5907 21.374C71.5907 21.374 71.1393 29.4862 77.9705 29.4862C81.4871 29.4862 84.3492 26.624 84.3492 23.1064V6.37871C84.3492 6.35927 84.3481 6.33875 84.3481 6.31823C84.3255 1.95379 81.1339 0 77.9705 0H61.3887C57.871 0 55.01 2.8621 55.01 6.37871C55.01 13.3903 62.1458 12.7574 62.1458 12.7574L49.6281 24.8063L42.7493 21.2487C40.262 19.9613 37.2649 20.4333 35.2906 22.4205L1.84826 56.121C-0.629346 58.618 -0.614226 62.665 1.88283 65.1426C3.08599 66.336 7.19446 68.8169 10.9033 65.108ZM4.79137 59.0425L38.2337 25.342C38.6657 24.9079 39.3591 24.1475 40.8442 24.9327L49.0427 29.1729C49.8322 29.5812 50.7935 29.4419 51.4339 28.8252L68.7275 12.1785C69.3367 11.5921 69.5289 10.6935 69.2125 9.90936C68.896 9.12417 68.1357 8.61115 67.2889 8.61115H61.3887C60.1585 8.61115 59.1573 7.60996 59.1573 6.37871C59.1573 5.14855 60.1585 4.14735 61.3887 4.14735H77.9705C78.5807 4.14735 80.2008 4.14735 80.2008 6.36575C80.2008 6.38411 80.2019 6.40247 80.2019 6.42191V23.1064C80.2019 24.3365 79.2007 25.3377 77.9705 25.3377C76.7393 25.3377 75.7381 24.3365 75.7381 23.1064V16.4998C75.7381 15.6681 75.2412 14.9164 74.4766 14.5913C73.7119 14.2652 72.8263 14.4293 72.2269 15.0061L52.3066 34.1811C51.6175 34.8442 50.5829 34.9954 49.734 34.5559L41.6013 30.3491C40.7966 29.9333 39.8149 30.0877 39.1766 30.7304L7.96021 62.1865C6.59936 63.5473 5.22447 62.6164 4.80325 62.1984C3.93058 61.3311 3.92518 59.9152 4.79137 59.0425Z" fill="#52BE41"/>
</svg>
