<svg width="402" height="276" viewBox="0 0 402 276" fill="none" xmlns="http://www.w3.org/2000/svg">
<mask id="path-1-outside-1" maskUnits="userSpaceOnUse" x="-0.579987" y="0.179993" width="403" height="276" fill="black">
<rect fill="white" x="-0.579987" y="0.179993" width="403" height="276"/>
<path d="M70.74 81.84C73.54 81.84 75.88 81.44 77.76 80.64C79.68 79.8 81.22 78.64 82.38 77.16C83.58 75.64 84.44 73.84 84.96 71.76C85.48 69.68 85.74 67.4 85.74 64.92C85.74 63.2 85.5 61.62 85.02 60.18C84.58 58.74 83.88 57.5 82.92 56.46C81.96 55.42 80.74 54.62 79.26 54.06C77.82 53.46 76.1 53.16 74.1 53.16H64.86L61.32 81.84H70.74ZM76.02 38.58C81.22 38.58 85.66 39.22 89.34 40.5C93.06 41.74 96.1 43.48 98.46 45.72C100.86 47.92 102.62 50.54 103.74 53.58C104.86 56.58 105.42 59.82 105.42 63.3C105.42 68.06 104.68 72.48 103.2 76.56C101.76 80.6 99.54 84.1 96.54 87.06C93.54 90.02 89.74 92.34 85.14 94.02C80.54 95.7 75.1 96.54 68.82 96.54H59.52L55.86 126H36.42L47.1 38.58H76.02Z"/>
<path d="M105.513 126L116.433 36.18H134.793L123.873 126H105.513Z"/>
<path d="M174.51 75.6C171.47 75.6 168.69 76.28 166.17 77.64C163.69 79 161.55 80.86 159.75 83.22C157.95 85.54 156.55 88.26 155.55 91.38C154.59 94.46 154.11 97.76 154.11 101.28C154.11 103.28 154.27 104.98 154.59 106.38C154.91 107.78 155.33 108.92 155.85 109.8C156.41 110.64 157.05 111.26 157.77 111.66C158.53 112.06 159.35 112.26 160.23 112.26C161.59 112.26 162.91 111.76 164.19 110.76C165.47 109.72 166.67 108.32 167.79 106.56C168.95 104.8 170.01 102.74 170.97 100.38C171.93 98.02 172.75 95.5 173.43 92.82L175.65 75.6H174.51ZM171.63 115.62C169.11 119.14 166.27 121.92 163.11 123.96C159.99 125.96 156.55 126.96 152.79 126.96C150.55 126.96 148.39 126.52 146.31 125.64C144.23 124.72 142.39 123.36 140.79 121.56C139.19 119.72 137.91 117.4 136.95 114.6C135.99 111.76 135.51 108.42 135.51 104.58C135.51 98.94 136.53 93.6 138.57 88.56C140.65 83.48 143.53 79.04 147.21 75.24C150.93 71.44 155.33 68.42 160.41 66.18C165.49 63.94 171.07 62.82 177.15 62.82C180.11 62.82 183.11 63.02 186.15 63.42C189.19 63.82 192.19 64.54 195.15 65.58L187.59 126H177.63C176.47 126 175.49 125.86 174.69 125.58C173.93 125.26 173.31 124.84 172.83 124.32C172.39 123.8 172.07 123.18 171.87 122.46C171.71 121.74 171.63 120.96 171.63 120.12V115.62Z"/>
<path d="M261.963 63.78L221.643 142.2C220.363 144.56 218.443 145.74 215.883 145.74H201.963L216.183 120.42L200.763 63.78H216.483C217.803 63.78 218.783 64.1 219.423 64.74C220.103 65.38 220.563 66.14 220.803 67.02L226.203 93.84C226.443 95 226.663 96.16 226.863 97.32C227.063 98.48 227.223 99.64 227.343 100.8C227.863 99.6 228.383 98.42 228.903 97.26C229.423 96.06 229.963 94.88 230.523 93.72L242.043 67.02C242.523 66.1 243.223 65.34 244.143 64.74C245.063 64.1 246.003 63.78 246.963 63.78H261.963Z"/>
<path d="M295.916 75.6C292.876 75.6 290.096 76.28 287.576 77.64C285.096 79 282.956 80.86 281.156 83.22C279.356 85.54 277.956 88.26 276.956 91.38C275.996 94.46 275.516 97.76 275.516 101.28C275.516 103.28 275.676 104.98 275.996 106.38C276.316 107.78 276.736 108.92 277.256 109.8C277.816 110.64 278.456 111.26 279.176 111.66C279.936 112.06 280.756 112.26 281.636 112.26C282.996 112.26 284.316 111.76 285.596 110.76C286.876 109.72 288.076 108.32 289.196 106.56C290.356 104.8 291.416 102.74 292.376 100.38C293.336 98.02 294.156 95.5 294.836 92.82L297.056 75.6H295.916ZM293.036 115.62C290.516 119.14 287.676 121.92 284.516 123.96C281.396 125.96 277.956 126.96 274.196 126.96C271.956 126.96 269.796 126.52 267.716 125.64C265.636 124.72 263.796 123.36 262.196 121.56C260.596 119.72 259.316 117.4 258.356 114.6C257.396 111.76 256.916 108.42 256.916 104.58C256.916 98.94 257.936 93.6 259.976 88.56C262.056 83.48 264.936 79.04 268.616 75.24C272.336 71.44 276.736 68.42 281.816 66.18C286.896 63.94 292.476 62.82 298.556 62.82C301.516 62.82 304.516 63.02 307.556 63.42C310.596 63.82 313.596 64.54 316.556 65.58L308.996 126H299.036C297.876 126 296.896 125.86 296.096 125.58C295.336 125.26 294.716 124.84 294.236 124.32C293.796 123.8 293.476 123.18 293.276 122.46C293.116 121.74 293.036 120.96 293.036 120.12V115.62Z"/>
<path d="M119.959 175.84C122.759 175.84 125.099 175.44 126.979 174.64C128.899 173.8 130.439 172.64 131.599 171.16C132.799 169.64 133.659 167.84 134.179 165.76C134.699 163.68 134.959 161.4 134.959 158.92C134.959 157.2 134.719 155.62 134.239 154.18C133.799 152.74 133.099 151.5 132.139 150.46C131.179 149.42 129.959 148.62 128.479 148.06C127.039 147.46 125.319 147.16 123.319 147.16H114.079L110.539 175.84H119.959ZM125.239 132.58C130.439 132.58 134.879 133.22 138.559 134.5C142.279 135.74 145.319 137.48 147.679 139.72C150.079 141.92 151.839 144.54 152.959 147.58C154.079 150.58 154.639 153.82 154.639 157.3C154.639 162.06 153.899 166.48 152.419 170.56C150.979 174.6 148.759 178.1 145.759 181.06C142.759 184.02 138.959 186.34 134.359 188.02C129.759 189.7 124.319 190.54 118.039 190.54H108.739L105.079 220H85.6388L96.3188 132.58H125.239Z"/>
<path d="M154.732 220L165.652 130.18H184.012L173.092 220H154.732Z"/>
<path d="M223.729 169.6C220.689 169.6 217.909 170.28 215.389 171.64C212.909 173 210.769 174.86 208.969 177.22C207.169 179.54 205.769 182.26 204.769 185.38C203.809 188.46 203.329 191.76 203.329 195.28C203.329 197.28 203.489 198.98 203.809 200.38C204.129 201.78 204.549 202.92 205.069 203.8C205.629 204.64 206.269 205.26 206.989 205.66C207.749 206.06 208.569 206.26 209.449 206.26C210.809 206.26 212.129 205.76 213.409 204.76C214.689 203.72 215.889 202.32 217.009 200.56C218.169 198.8 219.229 196.74 220.189 194.38C221.149 192.02 221.969 189.5 222.649 186.82L224.869 169.6H223.729ZM220.849 209.62C218.329 213.14 215.489 215.92 212.329 217.96C209.209 219.96 205.769 220.96 202.009 220.96C199.769 220.96 197.609 220.52 195.529 219.64C193.449 218.72 191.609 217.36 190.009 215.56C188.409 213.72 187.129 211.4 186.169 208.6C185.209 205.76 184.729 202.42 184.729 198.58C184.729 192.94 185.749 187.6 187.789 182.56C189.869 177.48 192.749 173.04 196.429 169.24C200.149 165.44 204.549 162.42 209.629 160.18C214.709 157.94 220.289 156.82 226.369 156.82C229.329 156.82 232.329 157.02 235.369 157.42C238.409 157.82 241.409 158.54 244.369 159.58L236.809 220H226.849C225.689 220 224.709 219.86 223.909 219.58C223.149 219.26 222.529 218.84 222.049 218.32C221.609 217.8 221.289 217.18 221.089 216.46C220.929 215.74 220.849 214.96 220.849 214.12V209.62Z"/>
<path d="M311.182 157.78L270.862 236.2C269.582 238.56 267.662 239.74 265.102 239.74H251.182L265.402 214.42L249.982 157.78H265.702C267.022 157.78 268.002 158.1 268.642 158.74C269.322 159.38 269.782 160.14 270.022 161.02L275.422 187.84C275.662 189 275.882 190.16 276.082 191.32C276.282 192.48 276.442 193.64 276.562 194.8C277.082 193.6 277.602 192.42 278.122 191.26C278.642 190.06 279.182 188.88 279.742 187.72L291.262 161.02C291.742 160.1 292.442 159.34 293.362 158.74C294.282 158.1 295.222 157.78 296.182 157.78H311.182Z"/>
<path d="M345.135 169.6C342.095 169.6 339.315 170.28 336.795 171.64C334.315 173 332.175 174.86 330.375 177.22C328.575 179.54 327.175 182.26 326.175 185.38C325.215 188.46 324.735 191.76 324.735 195.28C324.735 197.28 324.895 198.98 325.215 200.38C325.535 201.78 325.955 202.92 326.475 203.8C327.035 204.64 327.675 205.26 328.395 205.66C329.155 206.06 329.975 206.26 330.855 206.26C332.215 206.26 333.535 205.76 334.815 204.76C336.095 203.72 337.295 202.32 338.415 200.56C339.575 198.8 340.635 196.74 341.595 194.38C342.555 192.02 343.375 189.5 344.055 186.82L346.275 169.6H345.135ZM342.255 209.62C339.735 213.14 336.895 215.92 333.735 217.96C330.615 219.96 327.175 220.96 323.415 220.96C321.175 220.96 319.015 220.52 316.935 219.64C314.855 218.72 313.015 217.36 311.415 215.56C309.815 213.72 308.535 211.4 307.575 208.6C306.615 205.76 306.135 202.42 306.135 198.58C306.135 192.94 307.155 187.6 309.195 182.56C311.275 177.48 314.155 173.04 317.835 169.24C321.555 165.44 325.955 162.42 331.035 160.18C336.115 157.94 341.695 156.82 347.775 156.82C350.735 156.82 353.735 157.02 356.775 157.42C359.815 157.82 362.815 158.54 365.775 159.58L358.215 220H348.255C347.095 220 346.115 219.86 345.315 219.58C344.555 219.26 343.935 218.84 343.455 218.32C343.015 217.8 342.695 217.18 342.495 216.46C342.335 215.74 342.255 214.96 342.255 214.12V209.62Z"/>
</mask>
<path d="M70.74 81.84C73.54 81.84 75.88 81.44 77.76 80.64C79.68 79.8 81.22 78.64 82.38 77.16C83.58 75.64 84.44 73.84 84.96 71.76C85.48 69.68 85.74 67.4 85.74 64.92C85.74 63.2 85.5 61.62 85.02 60.18C84.58 58.74 83.88 57.5 82.92 56.46C81.96 55.42 80.74 54.62 79.26 54.06C77.82 53.46 76.1 53.16 74.1 53.16H64.86L61.32 81.84H70.74ZM76.02 38.58C81.22 38.58 85.66 39.22 89.34 40.5C93.06 41.74 96.1 43.48 98.46 45.72C100.86 47.92 102.62 50.54 103.74 53.58C104.86 56.58 105.42 59.82 105.42 63.3C105.42 68.06 104.68 72.48 103.2 76.56C101.76 80.6 99.54 84.1 96.54 87.06C93.54 90.02 89.74 92.34 85.14 94.02C80.54 95.7 75.1 96.54 68.82 96.54H59.52L55.86 126H36.42L47.1 38.58H76.02Z" fill="#F1F1F1"/>
<path d="M105.513 126L116.433 36.18H134.793L123.873 126H105.513Z" fill="#F1F1F1"/>
<path d="M174.51 75.6C171.47 75.6 168.69 76.28 166.17 77.64C163.69 79 161.55 80.86 159.75 83.22C157.95 85.54 156.55 88.26 155.55 91.38C154.59 94.46 154.11 97.76 154.11 101.28C154.11 103.28 154.27 104.98 154.59 106.38C154.91 107.78 155.33 108.92 155.85 109.8C156.41 110.64 157.05 111.26 157.77 111.66C158.53 112.06 159.35 112.26 160.23 112.26C161.59 112.26 162.91 111.76 164.19 110.76C165.47 109.72 166.67 108.32 167.79 106.56C168.95 104.8 170.01 102.74 170.97 100.38C171.93 98.02 172.75 95.5 173.43 92.82L175.65 75.6H174.51ZM171.63 115.62C169.11 119.14 166.27 121.92 163.11 123.96C159.99 125.96 156.55 126.96 152.79 126.96C150.55 126.96 148.39 126.52 146.31 125.64C144.23 124.72 142.39 123.36 140.79 121.56C139.19 119.72 137.91 117.4 136.95 114.6C135.99 111.76 135.51 108.42 135.51 104.58C135.51 98.94 136.53 93.6 138.57 88.56C140.65 83.48 143.53 79.04 147.21 75.24C150.93 71.44 155.33 68.42 160.41 66.18C165.49 63.94 171.07 62.82 177.15 62.82C180.11 62.82 183.11 63.02 186.15 63.42C189.19 63.82 192.19 64.54 195.15 65.58L187.59 126H177.63C176.47 126 175.49 125.86 174.69 125.58C173.93 125.26 173.31 124.84 172.83 124.32C172.39 123.8 172.07 123.18 171.87 122.46C171.71 121.74 171.63 120.96 171.63 120.12V115.62Z" fill="#F1F1F1"/>
<path d="M261.963 63.78L221.643 142.2C220.363 144.56 218.443 145.74 215.883 145.74H201.963L216.183 120.42L200.763 63.78H216.483C217.803 63.78 218.783 64.1 219.423 64.74C220.103 65.38 220.563 66.14 220.803 67.02L226.203 93.84C226.443 95 226.663 96.16 226.863 97.32C227.063 98.48 227.223 99.64 227.343 100.8C227.863 99.6 228.383 98.42 228.903 97.26C229.423 96.06 229.963 94.88 230.523 93.72L242.043 67.02C242.523 66.1 243.223 65.34 244.143 64.74C245.063 64.1 246.003 63.78 246.963 63.78H261.963Z" fill="#F1F1F1"/>
<path d="M295.916 75.6C292.876 75.6 290.096 76.28 287.576 77.64C285.096 79 282.956 80.86 281.156 83.22C279.356 85.54 277.956 88.26 276.956 91.38C275.996 94.46 275.516 97.76 275.516 101.28C275.516 103.28 275.676 104.98 275.996 106.38C276.316 107.78 276.736 108.92 277.256 109.8C277.816 110.64 278.456 111.26 279.176 111.66C279.936 112.06 280.756 112.26 281.636 112.26C282.996 112.26 284.316 111.76 285.596 110.76C286.876 109.72 288.076 108.32 289.196 106.56C290.356 104.8 291.416 102.74 292.376 100.38C293.336 98.02 294.156 95.5 294.836 92.82L297.056 75.6H295.916ZM293.036 115.62C290.516 119.14 287.676 121.92 284.516 123.96C281.396 125.96 277.956 126.96 274.196 126.96C271.956 126.96 269.796 126.52 267.716 125.64C265.636 124.72 263.796 123.36 262.196 121.56C260.596 119.72 259.316 117.4 258.356 114.6C257.396 111.76 256.916 108.42 256.916 104.58C256.916 98.94 257.936 93.6 259.976 88.56C262.056 83.48 264.936 79.04 268.616 75.24C272.336 71.44 276.736 68.42 281.816 66.18C286.896 63.94 292.476 62.82 298.556 62.82C301.516 62.82 304.516 63.02 307.556 63.42C310.596 63.82 313.596 64.54 316.556 65.58L308.996 126H299.036C297.876 126 296.896 125.86 296.096 125.58C295.336 125.26 294.716 124.84 294.236 124.32C293.796 123.8 293.476 123.18 293.276 122.46C293.116 121.74 293.036 120.96 293.036 120.12V115.62Z" fill="#F1F1F1"/>
<path d="M119.959 175.84C122.759 175.84 125.099 175.44 126.979 174.64C128.899 173.8 130.439 172.64 131.599 171.16C132.799 169.64 133.659 167.84 134.179 165.76C134.699 163.68 134.959 161.4 134.959 158.92C134.959 157.2 134.719 155.62 134.239 154.18C133.799 152.74 133.099 151.5 132.139 150.46C131.179 149.42 129.959 148.62 128.479 148.06C127.039 147.46 125.319 147.16 123.319 147.16H114.079L110.539 175.84H119.959ZM125.239 132.58C130.439 132.58 134.879 133.22 138.559 134.5C142.279 135.74 145.319 137.48 147.679 139.72C150.079 141.92 151.839 144.54 152.959 147.58C154.079 150.58 154.639 153.82 154.639 157.3C154.639 162.06 153.899 166.48 152.419 170.56C150.979 174.6 148.759 178.1 145.759 181.06C142.759 184.02 138.959 186.34 134.359 188.02C129.759 189.7 124.319 190.54 118.039 190.54H108.739L105.079 220H85.6388L96.3188 132.58H125.239Z" fill="#F1F1F1"/>
<path d="M154.732 220L165.652 130.18H184.012L173.092 220H154.732Z" fill="#F1F1F1"/>
<path d="M223.729 169.6C220.689 169.6 217.909 170.28 215.389 171.64C212.909 173 210.769 174.86 208.969 177.22C207.169 179.54 205.769 182.26 204.769 185.38C203.809 188.46 203.329 191.76 203.329 195.28C203.329 197.28 203.489 198.98 203.809 200.38C204.129 201.78 204.549 202.92 205.069 203.8C205.629 204.64 206.269 205.26 206.989 205.66C207.749 206.06 208.569 206.26 209.449 206.26C210.809 206.26 212.129 205.76 213.409 204.76C214.689 203.72 215.889 202.32 217.009 200.56C218.169 198.8 219.229 196.74 220.189 194.38C221.149 192.02 221.969 189.5 222.649 186.82L224.869 169.6H223.729ZM220.849 209.62C218.329 213.14 215.489 215.92 212.329 217.96C209.209 219.96 205.769 220.96 202.009 220.96C199.769 220.96 197.609 220.52 195.529 219.64C193.449 218.72 191.609 217.36 190.009 215.56C188.409 213.72 187.129 211.4 186.169 208.6C185.209 205.76 184.729 202.42 184.729 198.58C184.729 192.94 185.749 187.6 187.789 182.56C189.869 177.48 192.749 173.04 196.429 169.24C200.149 165.44 204.549 162.42 209.629 160.18C214.709 157.94 220.289 156.82 226.369 156.82C229.329 156.82 232.329 157.02 235.369 157.42C238.409 157.82 241.409 158.54 244.369 159.58L236.809 220H226.849C225.689 220 224.709 219.86 223.909 219.58C223.149 219.26 222.529 218.84 222.049 218.32C221.609 217.8 221.289 217.18 221.089 216.46C220.929 215.74 220.849 214.96 220.849 214.12V209.62Z" fill="#F1F1F1"/>
<path d="M311.182 157.78L270.862 236.2C269.582 238.56 267.662 239.74 265.102 239.74H251.182L265.402 214.42L249.982 157.78H265.702C267.022 157.78 268.002 158.1 268.642 158.74C269.322 159.38 269.782 160.14 270.022 161.02L275.422 187.84C275.662 189 275.882 190.16 276.082 191.32C276.282 192.48 276.442 193.64 276.562 194.8C277.082 193.6 277.602 192.42 278.122 191.26C278.642 190.06 279.182 188.88 279.742 187.72L291.262 161.02C291.742 160.1 292.442 159.34 293.362 158.74C294.282 158.1 295.222 157.78 296.182 157.78H311.182Z" fill="#F1F1F1"/>
<path d="M345.135 169.6C342.095 169.6 339.315 170.28 336.795 171.64C334.315 173 332.175 174.86 330.375 177.22C328.575 179.54 327.175 182.26 326.175 185.38C325.215 188.46 324.735 191.76 324.735 195.28C324.735 197.28 324.895 198.98 325.215 200.38C325.535 201.78 325.955 202.92 326.475 203.8C327.035 204.64 327.675 205.26 328.395 205.66C329.155 206.06 329.975 206.26 330.855 206.26C332.215 206.26 333.535 205.76 334.815 204.76C336.095 203.72 337.295 202.32 338.415 200.56C339.575 198.8 340.635 196.74 341.595 194.38C342.555 192.02 343.375 189.5 344.055 186.82L346.275 169.6H345.135ZM342.255 209.62C339.735 213.14 336.895 215.92 333.735 217.96C330.615 219.96 327.175 220.96 323.415 220.96C321.175 220.96 319.015 220.52 316.935 219.64C314.855 218.72 313.015 217.36 311.415 215.56C309.815 213.72 308.535 211.4 307.575 208.6C306.615 205.76 306.135 202.42 306.135 198.58C306.135 192.94 307.155 187.6 309.195 182.56C311.275 177.48 314.155 173.04 317.835 169.24C321.555 165.44 325.955 162.42 331.035 160.18C336.115 157.94 341.695 156.82 347.775 156.82C350.735 156.82 353.735 157.02 356.775 157.42C359.815 157.82 362.815 158.54 365.775 159.58L358.215 220H348.255C347.095 220 346.115 219.86 345.315 219.58C344.555 219.26 343.935 218.84 343.455 218.32C343.015 217.8 342.695 217.18 342.495 216.46C342.335 215.74 342.255 214.96 342.255 214.12V209.62Z" fill="#F1F1F1"/>
<path d="M70.74 81.84C73.54 81.84 75.88 81.44 77.76 80.64C79.68 79.8 81.22 78.64 82.38 77.16C83.58 75.64 84.44 73.84 84.96 71.76C85.48 69.68 85.74 67.4 85.74 64.92C85.74 63.2 85.5 61.62 85.02 60.18C84.58 58.74 83.88 57.5 82.92 56.46C81.96 55.42 80.74 54.62 79.26 54.06C77.82 53.46 76.1 53.16 74.1 53.16H64.86L61.32 81.84H70.74ZM76.02 38.58C81.22 38.58 85.66 39.22 89.34 40.5C93.06 41.74 96.1 43.48 98.46 45.72C100.86 47.92 102.62 50.54 103.74 53.58C104.86 56.58 105.42 59.82 105.42 63.3C105.42 68.06 104.68 72.48 103.2 76.56C101.76 80.6 99.54 84.1 96.54 87.06C93.54 90.02 89.74 92.34 85.14 94.02C80.54 95.7 75.1 96.54 68.82 96.54H59.52L55.86 126H36.42L47.1 38.58H76.02Z" stroke="#52BE41" stroke-width="72" stroke-linejoin="round" mask="url(#path-1-outside-1)"/>
<path d="M105.513 126L116.433 36.18H134.793L123.873 126H105.513Z" stroke="#52BE41" stroke-width="72" stroke-linejoin="round" mask="url(#path-1-outside-1)"/>
<path d="M174.51 75.6C171.47 75.6 168.69 76.28 166.17 77.64C163.69 79 161.55 80.86 159.75 83.22C157.95 85.54 156.55 88.26 155.55 91.38C154.59 94.46 154.11 97.76 154.11 101.28C154.11 103.28 154.27 104.98 154.59 106.38C154.91 107.78 155.33 108.92 155.85 109.8C156.41 110.64 157.05 111.26 157.77 111.66C158.53 112.06 159.35 112.26 160.23 112.26C161.59 112.26 162.91 111.76 164.19 110.76C165.47 109.72 166.67 108.32 167.79 106.56C168.95 104.8 170.01 102.74 170.97 100.38C171.93 98.02 172.75 95.5 173.43 92.82L175.65 75.6H174.51ZM171.63 115.62C169.11 119.14 166.27 121.92 163.11 123.96C159.99 125.96 156.55 126.96 152.79 126.96C150.55 126.96 148.39 126.52 146.31 125.64C144.23 124.72 142.39 123.36 140.79 121.56C139.19 119.72 137.91 117.4 136.95 114.6C135.99 111.76 135.51 108.42 135.51 104.58C135.51 98.94 136.53 93.6 138.57 88.56C140.65 83.48 143.53 79.04 147.21 75.24C150.93 71.44 155.33 68.42 160.41 66.18C165.49 63.94 171.07 62.82 177.15 62.82C180.11 62.82 183.11 63.02 186.15 63.42C189.19 63.82 192.19 64.54 195.15 65.58L187.59 126H177.63C176.47 126 175.49 125.86 174.69 125.58C173.93 125.26 173.31 124.84 172.83 124.32C172.39 123.8 172.07 123.18 171.87 122.46C171.71 121.74 171.63 120.96 171.63 120.12V115.62Z" stroke="#52BE41" stroke-width="72" stroke-linejoin="round" mask="url(#path-1-outside-1)"/>
<path d="M261.963 63.78L221.643 142.2C220.363 144.56 218.443 145.74 215.883 145.74H201.963L216.183 120.42L200.763 63.78H216.483C217.803 63.78 218.783 64.1 219.423 64.74C220.103 65.38 220.563 66.14 220.803 67.02L226.203 93.84C226.443 95 226.663 96.16 226.863 97.32C227.063 98.48 227.223 99.64 227.343 100.8C227.863 99.6 228.383 98.42 228.903 97.26C229.423 96.06 229.963 94.88 230.523 93.72L242.043 67.02C242.523 66.1 243.223 65.34 244.143 64.74C245.063 64.1 246.003 63.78 246.963 63.78H261.963Z" stroke="#52BE41" stroke-width="72" stroke-linejoin="round" mask="url(#path-1-outside-1)"/>
<path d="M295.916 75.6C292.876 75.6 290.096 76.28 287.576 77.64C285.096 79 282.956 80.86 281.156 83.22C279.356 85.54 277.956 88.26 276.956 91.38C275.996 94.46 275.516 97.76 275.516 101.28C275.516 103.28 275.676 104.98 275.996 106.38C276.316 107.78 276.736 108.92 277.256 109.8C277.816 110.64 278.456 111.26 279.176 111.66C279.936 112.06 280.756 112.26 281.636 112.26C282.996 112.26 284.316 111.76 285.596 110.76C286.876 109.72 288.076 108.32 289.196 106.56C290.356 104.8 291.416 102.74 292.376 100.38C293.336 98.02 294.156 95.5 294.836 92.82L297.056 75.6H295.916ZM293.036 115.62C290.516 119.14 287.676 121.92 284.516 123.96C281.396 125.96 277.956 126.96 274.196 126.96C271.956 126.96 269.796 126.52 267.716 125.64C265.636 124.72 263.796 123.36 262.196 121.56C260.596 119.72 259.316 117.4 258.356 114.6C257.396 111.76 256.916 108.42 256.916 104.58C256.916 98.94 257.936 93.6 259.976 88.56C262.056 83.48 264.936 79.04 268.616 75.24C272.336 71.44 276.736 68.42 281.816 66.18C286.896 63.94 292.476 62.82 298.556 62.82C301.516 62.82 304.516 63.02 307.556 63.42C310.596 63.82 313.596 64.54 316.556 65.58L308.996 126H299.036C297.876 126 296.896 125.86 296.096 125.58C295.336 125.26 294.716 124.84 294.236 124.32C293.796 123.8 293.476 123.18 293.276 122.46C293.116 121.74 293.036 120.96 293.036 120.12V115.62Z" stroke="#52BE41" stroke-width="72" stroke-linejoin="round" mask="url(#path-1-outside-1)"/>
<path d="M119.959 175.84C122.759 175.84 125.099 175.44 126.979 174.64C128.899 173.8 130.439 172.64 131.599 171.16C132.799 169.64 133.659 167.84 134.179 165.76C134.699 163.68 134.959 161.4 134.959 158.92C134.959 157.2 134.719 155.62 134.239 154.18C133.799 152.74 133.099 151.5 132.139 150.46C131.179 149.42 129.959 148.62 128.479 148.06C127.039 147.46 125.319 147.16 123.319 147.16H114.079L110.539 175.84H119.959ZM125.239 132.58C130.439 132.58 134.879 133.22 138.559 134.5C142.279 135.74 145.319 137.48 147.679 139.72C150.079 141.92 151.839 144.54 152.959 147.58C154.079 150.58 154.639 153.82 154.639 157.3C154.639 162.06 153.899 166.48 152.419 170.56C150.979 174.6 148.759 178.1 145.759 181.06C142.759 184.02 138.959 186.34 134.359 188.02C129.759 189.7 124.319 190.54 118.039 190.54H108.739L105.079 220H85.6388L96.3188 132.58H125.239Z" stroke="#52BE41" stroke-width="72" stroke-linejoin="round" mask="url(#path-1-outside-1)"/>
<path d="M154.732 220L165.652 130.18H184.012L173.092 220H154.732Z" stroke="#52BE41" stroke-width="72" stroke-linejoin="round" mask="url(#path-1-outside-1)"/>
<path d="M223.729 169.6C220.689 169.6 217.909 170.28 215.389 171.64C212.909 173 210.769 174.86 208.969 177.22C207.169 179.54 205.769 182.26 204.769 185.38C203.809 188.46 203.329 191.76 203.329 195.28C203.329 197.28 203.489 198.98 203.809 200.38C204.129 201.78 204.549 202.92 205.069 203.8C205.629 204.64 206.269 205.26 206.989 205.66C207.749 206.06 208.569 206.26 209.449 206.26C210.809 206.26 212.129 205.76 213.409 204.76C214.689 203.72 215.889 202.32 217.009 200.56C218.169 198.8 219.229 196.74 220.189 194.38C221.149 192.02 221.969 189.5 222.649 186.82L224.869 169.6H223.729ZM220.849 209.62C218.329 213.14 215.489 215.92 212.329 217.96C209.209 219.96 205.769 220.96 202.009 220.96C199.769 220.96 197.609 220.52 195.529 219.64C193.449 218.72 191.609 217.36 190.009 215.56C188.409 213.72 187.129 211.4 186.169 208.6C185.209 205.76 184.729 202.42 184.729 198.58C184.729 192.94 185.749 187.6 187.789 182.56C189.869 177.48 192.749 173.04 196.429 169.24C200.149 165.44 204.549 162.42 209.629 160.18C214.709 157.94 220.289 156.82 226.369 156.82C229.329 156.82 232.329 157.02 235.369 157.42C238.409 157.82 241.409 158.54 244.369 159.58L236.809 220H226.849C225.689 220 224.709 219.86 223.909 219.58C223.149 219.26 222.529 218.84 222.049 218.32C221.609 217.8 221.289 217.18 221.089 216.46C220.929 215.74 220.849 214.96 220.849 214.12V209.62Z" stroke="#52BE41" stroke-width="72" stroke-linejoin="round" mask="url(#path-1-outside-1)"/>
<path d="M311.182 157.78L270.862 236.2C269.582 238.56 267.662 239.74 265.102 239.74H251.182L265.402 214.42L249.982 157.78H265.702C267.022 157.78 268.002 158.1 268.642 158.74C269.322 159.38 269.782 160.14 270.022 161.02L275.422 187.84C275.662 189 275.882 190.16 276.082 191.32C276.282 192.48 276.442 193.64 276.562 194.8C277.082 193.6 277.602 192.42 278.122 191.26C278.642 190.06 279.182 188.88 279.742 187.72L291.262 161.02C291.742 160.1 292.442 159.34 293.362 158.74C294.282 158.1 295.222 157.78 296.182 157.78H311.182Z" stroke="#52BE41" stroke-width="72" stroke-linejoin="round" mask="url(#path-1-outside-1)"/>
<path d="M345.135 169.6C342.095 169.6 339.315 170.28 336.795 171.64C334.315 173 332.175 174.86 330.375 177.22C328.575 179.54 327.175 182.26 326.175 185.38C325.215 188.46 324.735 191.76 324.735 195.28C324.735 197.28 324.895 198.98 325.215 200.38C325.535 201.78 325.955 202.92 326.475 203.8C327.035 204.64 327.675 205.26 328.395 205.66C329.155 206.06 329.975 206.26 330.855 206.26C332.215 206.26 333.535 205.76 334.815 204.76C336.095 203.72 337.295 202.32 338.415 200.56C339.575 198.8 340.635 196.74 341.595 194.38C342.555 192.02 343.375 189.5 344.055 186.82L346.275 169.6H345.135ZM342.255 209.62C339.735 213.14 336.895 215.92 333.735 217.96C330.615 219.96 327.175 220.96 323.415 220.96C321.175 220.96 319.015 220.52 316.935 219.64C314.855 218.72 313.015 217.36 311.415 215.56C309.815 213.72 308.535 211.4 307.575 208.6C306.615 205.76 306.135 202.42 306.135 198.58C306.135 192.94 307.155 187.6 309.195 182.56C311.275 177.48 314.155 173.04 317.835 169.24C321.555 165.44 325.955 162.42 331.035 160.18C336.115 157.94 341.695 156.82 347.775 156.82C350.735 156.82 353.735 157.02 356.775 157.42C359.815 157.82 362.815 158.54 365.775 159.58L358.215 220H348.255C347.095 220 346.115 219.86 345.315 219.58C344.555 219.26 343.935 218.84 343.455 218.32C343.015 217.8 342.695 217.18 342.495 216.46C342.335 215.74 342.255 214.96 342.255 214.12V209.62Z" stroke="#52BE41" stroke-width="72" stroke-linejoin="round" mask="url(#path-1-outside-1)"/>
</svg>
