<svg width="144" height="144" viewBox="0 0 144 144" fill="none" xmlns="http://www.w3.org/2000/svg">
<g clip-path="url(#clip0)">
<path d="M111.001 0H9.00098C4.03045 0 0.000976562 4.02947 0.000976562 9V81C0.000976562 85.9705 4.03045 90 9.00098 90H48.0011V84.0001H9.00098C7.34413 84.0001 6.00088 82.6568 6.00088 81V9C6.00088 7.34316 7.34413 5.99991 9.00098 5.99991H111.001C112.658 5.99991 114.001 7.34316 114.001 9V63H120.001V9C120.001 4.02947 115.972 0 111.001 0Z" fill="#26611D"/>
<path d="M41.9999 86.9998H36V105H41.9999V86.9998Z" fill="#26611D"/>
<path d="M21.0005 72C19.3436 72 18.0004 70.6567 18.0004 68.9999V63H12.0005V68.9999C12.0005 73.9704 16.03 77.9999 21.0005 77.9999H27.0004V72H21.0005Z" fill="#26611D"/>
<path d="M18.0004 50.9998H12.0005V56.9997H18.0004V50.9998Z" fill="#26611D"/>
<path d="M109.641 63.5458C103.528 57.4315 95.2361 53.9965 86.5899 53.9968C68.5882 53.9977 53.9955 68.5915 53.9961 86.5932C53.9969 104.595 68.5907 119.188 86.5924 119.187C95.2358 119.187 103.525 115.753 109.637 109.642C122.367 96.9142 122.369 76.2763 109.641 63.5458ZM86.5744 113.19C71.8864 113.185 59.9833 101.274 59.9884 86.5858C59.9935 71.8978 71.9044 59.9948 86.5924 59.9998C93.6521 59.9807 100.425 62.7898 105.399 67.7997C110.383 72.7886 113.181 79.5523 113.178 86.6038C113.173 101.292 101.262 113.195 86.5744 113.19Z" fill="#52BE41"/>
<path d="M143.121 130.5L124.29 111.675C123.727 111.113 122.964 110.796 122.169 110.796C121.373 110.796 120.611 111.113 120.048 111.675L111.678 120.045C110.507 121.216 110.507 123.115 111.678 124.287L130.509 143.121C131.072 143.684 131.835 144 132.63 144C133.427 143.997 134.19 143.678 134.751 143.112L143.121 134.742C144.292 133.57 144.292 131.671 143.121 130.5ZM132.63 136.758L118.041 122.166L122.169 118.038L136.758 132.63L132.63 136.758Z" fill="#52BE41"/>
<path d="M109.641 105.396L105.398 109.639L115.861 120.101L120.103 115.859L109.641 105.396Z" fill="#52BE41"/>
<path d="M87.0005 66.0002V72.0001C95.2808 72.01 101.991 78.72 102 87H108C107.987 75.4078 98.593 66.0135 87.0005 66.0002Z" fill="#52BE41"/>
<path d="M54.0004 102H30.0005V108H54.0004V102Z" fill="#26611D"/>
<path d="M45 12.0002C40.0295 12.0002 36 16.0297 36 21.0002C36 25.9708 40.0295 30.0002 45 30.0002C49.9705 30.0002 54 25.9708 54 21.0002C54 16.0297 49.9705 12.0002 45 12.0002ZM45 24.0001C43.3432 24.0001 41.9999 22.6568 41.9999 21C41.9999 19.3431 43.3432 17.9999 45 17.9999C46.6568 17.9999 48.0001 19.3431 48.0001 21C48.0001 22.6571 46.6568 24.0001 45 24.0001Z" fill="#26611D"/>
<path d="M66.0005 32.9998C61.03 32.9998 57.0005 37.0292 57.0005 41.9997C57.0005 46.9703 61.03 50.9997 66.0005 50.9997C70.971 50.9997 75.0005 46.9703 75.0005 41.9997C75.0005 37.0292 70.971 32.9998 66.0005 32.9998ZM66.0005 44.9998C64.3436 44.9998 63.0004 43.6566 63.0004 41.9997C63.0004 40.3429 64.3436 38.9997 66.0005 38.9997C67.6573 38.9997 69.0006 40.3429 69.0006 41.9997C69.0003 43.6566 67.6573 44.9998 66.0005 44.9998Z" fill="#26611D"/>
<path d="M39.8786 21.8799L24.8789 36.8796L29.1214 41.1222L44.1212 26.1225L39.8786 21.8799Z" fill="#26611D"/>
<path d="M50.1087 21.8874L45.8662 26.1299L60.8659 41.1296L65.1084 36.8871L50.1087 21.8874Z" fill="#26611D"/>
<path d="M87.0005 12.0002C82.03 12.0002 78.0005 16.0297 78.0005 21.0002C78.0005 25.9708 82.03 30.0002 87.0005 30.0002C91.971 30.0002 96.0005 25.9708 96.0005 21.0002C96.0008 16.0297 91.9713 12.0002 87.0005 12.0002ZM87.0005 24.0001C85.3436 24.0001 84.0004 22.6568 84.0004 21C84.0004 19.3431 85.3436 17.9999 87.0005 17.9999C88.6573 17.9999 90.0006 19.3431 90.0006 21C90.0006 22.6571 88.6573 24.0001 87.0005 24.0001Z" fill="#26611D"/>
<path d="M81.8772 21.8902L66.8774 36.8899L71.12 41.1324L86.1197 26.1327L81.8772 21.8902Z" fill="#26611D"/>
</g>
<defs>
<clipPath id="clip0">
<rect width="144" height="144" fill="white"/>
</clipPath>
</defs>
</svg>
