<svg width="144" height="144" viewBox="0 0 144 144" fill="none" xmlns="http://www.w3.org/2000/svg">
<path d="M71.749 18.2981C73.3133 18.2981 74.5814 17.03 74.5814 15.4657V2.83247C74.5814 1.26816 73.3133 0 71.749 0C70.1847 0 68.9165 1.26816 68.9165 2.83247V15.4657C68.9168 17.03 70.1849 18.2981 71.749 18.2981Z" fill="#52BE41"/>
<path d="M140.985 97.3083L135.981 92.3187C134.201 90.5409 131.829 89.5616 129.301 89.5616C127.685 89.5616 126.133 89.9638 124.758 90.7173L115.329 81.2993L115.788 80.8406C119.613 77.0077 119.612 70.7794 115.788 66.9595C114.421 65.5904 112.716 64.6775 110.857 64.2933C111.113 63.4099 111.248 62.4845 111.248 61.5376C111.248 58.9065 110.226 56.4394 108.376 54.5969C107.009 53.2278 105.304 52.3148 103.445 51.9306C103.701 51.0472 103.836 50.1222 103.836 49.1749C103.836 46.5436 102.814 44.0767 100.961 42.2315C99.5611 40.8336 97.8407 39.9488 96.0342 39.5722C97.0006 36.2403 96.1749 32.4915 93.5536 29.8657C91.3717 27.6931 88.411 26.7593 85.5577 27.0619L66.8728 23.5252C64.0232 22.9847 60.4646 22.6272 58.2182 24.6761C58.0765 24.8055 57.9319 24.9543 57.7896 25.1199C54.3066 23.8504 50.2442 24.6064 47.4551 27.3924C45.6047 29.2405 44.5855 31.7065 44.5855 34.3362C44.5855 35.2834 44.7196 36.2085 44.9753 37.0922C43.1185 37.4761 41.4155 38.3879 40.0534 39.7525C38.1994 41.5989 37.1771 44.0621 37.1751 46.6887C37.1742 47.6382 37.309 48.5663 37.566 49.4523C35.7084 49.8353 34.0043 50.7454 32.638 52.1101C30.784 53.9621 29.763 56.4295 29.763 59.0578C29.763 61.071 30.3641 62.9888 31.4778 64.6088C30.0716 65.0855 28.7834 65.8789 27.7048 66.9564C23.877 70.7794 23.8756 77.008 27.7074 80.8465L28.165 81.3021L18.7347 90.7153C15.23 89.0652 10.912 89.6834 8.01987 92.5718L3.01306 97.5646C1.23218 99.3432 0.251746 101.716 0.251465 104.245C0.251465 106.775 1.23218 109.148 3.01306 110.926L9.26159 117.167C10.3683 118.273 12.1618 118.272 13.2672 117.165C14.3727 116.058 14.3716 114.265 13.2649 113.16L7.01637 106.919C6.30706 106.21 5.9164 105.261 5.9164 104.245C5.9164 103.23 6.30706 102.281 7.01468 101.574L12.0218 96.5813C13.2728 95.3317 15.1875 95.1455 16.6416 96.0149C16.744 96.1687 16.8624 96.315 16.9979 96.4508C17.2407 96.6941 17.5177 96.8806 17.8119 97.017L46.5255 125.688C46.6619 125.986 46.8492 126.266 47.0937 126.51C47.3316 126.748 47.603 126.933 47.891 127.068C48.4982 127.755 48.8337 128.632 48.8337 129.567C48.8337 130.582 48.4431 131.532 47.7338 132.24L42.7317 137.236C41.2538 138.708 38.8497 138.708 37.3762 137.241L31.1277 130.992C30.0215 129.886 28.2282 129.886 27.1221 130.992C26.0159 132.098 26.0159 133.891 27.1221 134.997L33.3751 141.251C35.2156 143.084 37.6327 144 40.0509 144C42.4696 144 44.8895 143.082 46.7322 141.248L51.7374 136.249C53.5182 134.47 54.499 132.097 54.499 129.567C54.499 127.762 53.9969 126.038 53.0635 124.551L63.6767 113.951C63.688 113.939 63.6992 113.928 63.7107 113.916C64.926 112.66 68.3103 112.895 71.5832 113.122C73.9086 113.284 76.5012 113.464 79.0341 113.172L90.6565 124.78C89.9036 126.153 89.5016 127.703 89.5016 129.317C89.5016 131.844 90.4824 134.215 92.2632 135.994L97.2686 140.993C99.0484 142.771 101.421 143.75 103.949 143.75C106.476 143.75 108.849 142.771 110.629 140.993L140.987 110.671C142.768 108.893 143.749 106.52 143.749 103.991C143.748 101.461 142.768 99.0887 140.985 97.3083ZM65.8182 29.0912L78.1051 31.4168L70.7507 38.7684C69.6131 38.2217 68.0538 37.2019 66.3432 35.5655C64.0018 33.3257 62.327 30.7396 62.1746 29.1266C62.1743 29.1258 62.1743 29.1249 62.1743 29.1241C62.1743 29.1238 62.174 29.1235 62.174 29.1232C62.163 29.0074 62.1602 28.9148 62.1616 28.8442C62.532 28.7542 63.5158 28.6544 65.8182 29.0912ZM51.4581 31.4005C52.893 29.967 55.1222 29.8016 56.7436 30.8996C57.6625 34.7522 60.9489 38.2439 62.4274 39.6586C63.5232 40.7071 67.0391 43.8506 70.5879 44.7146C71.068 45.4028 71.3292 46.2232 71.3292 47.0889C71.3292 48.2041 70.9003 49.2467 70.1188 50.0274C69.3394 50.8082 68.2951 51.2379 67.178 51.2379C66.0606 51.2379 65.0163 50.8082 64.2333 50.0238L64.233 50.0235L64.2316 50.0221L51.4578 37.2713C50.679 36.4937 50.2501 35.4511 50.2501 34.3362C50.2504 33.221 50.6793 32.1785 51.4581 31.4005ZM44.0567 43.7606C44.8361 42.9801 45.8792 42.5501 46.9947 42.5501C48.1115 42.5501 49.158 42.981 49.9424 43.7645L60.2283 54.0299C61.848 55.6521 61.848 58.2919 60.2339 59.9086C59.4504 60.689 58.4024 61.1188 57.2833 61.1188C56.1642 61.1188 55.1163 60.689 54.3361 59.9119L54.3358 59.9117L46.5326 52.1101C46.5205 52.098 46.5072 52.0867 46.4949 52.0744L44.0536 49.6342C43.2703 48.8518 42.8392 47.8072 42.84 46.6929C42.8412 45.5823 43.2709 44.543 44.0567 43.7606ZM36.6413 56.1182C37.4212 55.3394 38.4666 54.9105 39.5854 54.9105C40.6949 54.9105 41.7313 55.3332 42.5079 56.0985L50.3351 63.922C51.1155 64.6994 51.5456 65.7409 51.5456 66.8546C51.5456 67.9681 51.1155 69.0095 50.332 69.79C49.5523 70.5685 48.5081 70.9974 47.3912 70.9974C46.2727 70.9974 45.225 70.5674 44.4443 69.79L41.6067 66.9559C41.6062 66.955 41.6053 66.9544 41.6048 66.9539L36.6416 61.9966C35.8591 61.215 35.4282 60.171 35.4282 59.0572C35.4282 57.9438 35.8591 56.8995 36.6413 56.1182ZM31.7082 70.9642C32.4914 70.1818 33.5382 69.7509 34.6557 69.7509C35.7728 69.7509 36.8193 70.1815 37.6023 70.9634L40.4438 73.8015C41.2245 74.5789 41.6543 75.6203 41.6543 76.7341C41.6543 77.8478 41.2242 78.889 40.4379 79.6726C39.6585 80.453 38.6142 80.8831 37.4971 80.8831C36.3797 80.8831 35.3354 80.4533 34.5505 79.667L34.1947 79.3126C34.1899 79.3078 34.1862 79.3027 34.1817 79.2982C34.1764 79.2932 34.1708 79.2887 34.1654 79.2836L31.711 76.8387C30.0912 75.2156 30.0898 72.5806 31.7082 70.9642ZM89.4302 103.156C88.3246 102.049 86.5311 102.048 85.4246 103.153L82.9046 105.67C80.5101 108.064 76.1712 107.763 71.9753 107.472C67.4187 107.155 62.707 106.828 59.6579 109.959L49.225 120.379L23.1354 94.3277L32.3682 85.1114C33.8943 86.0468 35.6552 86.5483 37.4977 86.5483C40.1299 86.5483 42.5982 85.5279 44.4417 83.681C46.2977 81.8326 47.3201 79.3657 47.3201 76.7344C47.3201 76.7099 47.3184 76.6857 47.3184 76.6612C47.3428 76.6615 47.3673 76.6629 47.3918 76.6629C50.0203 76.6629 52.4866 75.6456 54.3327 73.8018C56.1887 71.9534 57.2111 69.4863 57.2111 66.8552C57.2111 66.8307 57.2094 66.8065 57.2094 66.782C57.2341 66.782 57.2589 66.7837 57.2839 66.7837C59.9116 66.7837 62.3793 65.7676 64.2378 63.9167C66.1672 61.9842 67.1215 59.44 67.1032 56.9012C67.1285 56.9015 67.1538 56.9029 67.1791 56.9029C69.8113 56.9026 72.2793 55.8825 74.1257 54.0327C75.9761 52.1846 76.9953 49.7186 76.9953 47.0889C76.9953 45.2498 76.4952 43.4917 75.5629 41.9688L83.6553 33.8797C84.2583 33.2793 85.0019 32.9024 85.7813 32.7469C85.8656 32.7379 85.9489 32.7244 86.0313 32.708C87.2817 32.5356 88.5949 32.9215 89.5511 33.8738C91.1709 35.4964 91.1709 38.1362 89.5571 39.7528L87.0925 42.2073C87.0843 42.2154 87.0756 42.2227 87.0674 42.2309L84.2288 45.0648C83.1218 46.1701 83.1207 47.9636 84.2262 49.0703C85.3321 50.1773 87.1254 50.1782 88.2318 49.0729L90.7062 46.6018C90.7068 46.6012 90.7074 46.6007 90.7079 46.6001L91.082 46.2274C92.7062 44.6181 95.3376 44.6215 96.9601 46.2418C97.7409 47.0192 98.1709 48.0606 98.1709 49.1744C98.1709 50.2879 97.7409 51.3293 96.9539 52.1129L94.4753 54.5966C94.475 54.5969 94.4747 54.5972 94.4744 54.5977L91.636 57.4246C90.5276 58.5285 90.524 60.322 91.6279 61.4301C92.7318 62.5385 94.5251 62.5419 95.6335 61.4383L98.4848 58.5985C99.2641 57.8178 100.308 57.388 101.426 57.388C102.543 57.388 103.587 57.8178 104.372 58.6041C105.153 59.3818 105.583 60.4233 105.583 61.537C105.583 62.6505 105.153 63.692 104.368 64.4738L99.4264 69.4174C98.3205 70.5238 98.3208 72.317 99.427 73.4229C99.9802 73.9759 100.705 74.252 101.429 74.252C102.155 74.252 102.88 73.9753 103.433 73.4221L105.854 70.9994C105.868 70.9862 105.883 70.9746 105.897 70.9609C106.676 70.1801 107.72 69.7504 108.838 69.7504C109.955 69.7504 110.999 70.1801 111.781 70.9637C113.399 72.58 113.398 75.2153 111.781 76.8348L109.319 79.2943C109.318 79.2951 109.317 79.296 109.316 79.2968C109.315 79.2977 109.315 79.2988 109.314 79.2996L105.405 83.2031C104.299 84.3087 104.298 86.1022 105.403 87.2089C105.956 87.7627 106.682 88.0398 107.407 88.0398C108.131 88.0398 108.856 87.7636 109.409 87.2115L111.32 85.3021L120.483 94.4537L94.3954 120.509L85.0483 111.173C85.7 110.754 86.3235 110.262 86.9088 109.676L89.4274 107.161C90.5347 106.056 90.5358 104.262 89.4302 103.156ZM136.983 106.663L106.625 136.985C105.915 137.694 104.964 138.085 103.948 138.085C102.932 138.085 101.982 137.694 101.271 136.985L96.266 131.985C95.5567 131.277 95.166 130.329 95.166 129.317C95.166 128.304 95.5567 127.356 96.266 126.648L126.624 96.3262C127.335 95.6166 128.285 95.226 129.301 95.226C130.317 95.226 131.268 95.6166 131.98 96.3279L136.984 101.318C137.693 102.026 138.084 102.975 138.084 103.99C138.083 105.006 137.693 105.955 136.983 106.663Z" fill="#26611D"/>
<path d="M34.1378 15.9103C34.6907 16.4621 35.4146 16.7377 36.1386 16.7377C36.8642 16.7377 37.5901 16.4604 38.1433 15.9061C39.2484 14.7988 39.2467 13.0055 38.1394 11.9005L27.8181 1.59973C26.7111 0.494697 24.9175 0.496103 23.8125 1.60367C22.7075 2.71095 22.7092 4.5042 23.8165 5.60923L34.1378 15.9103Z" fill="#52BE41"/>
<path d="M107.359 16.7376C108.083 16.7376 108.808 16.4614 109.361 15.9093L119.674 5.60828C120.781 4.50297 120.782 2.70943 119.677 1.60272C118.571 0.495997 116.778 0.494872 115.671 1.60047L105.358 11.9015C104.251 13.0068 104.25 14.8004 105.355 15.9071C105.909 16.4609 106.634 16.7376 107.359 16.7376Z" fill="#52BE41"/>
<path d="M17.668 121.838C16.5714 122.954 16.5866 124.747 17.7023 125.844L17.7105 125.852C18.2609 126.393 18.9756 126.662 19.6899 126.662C20.4232 126.662 21.1564 126.379 21.7118 125.814C22.8084 124.698 22.789 122.901 21.6736 121.804C20.5584 120.708 18.7652 120.723 17.668 121.838Z" fill="black"/>
<path d="M96.3582 99.0749C96.7891 99.0749 97.2261 98.9768 97.6365 98.77C99.0332 98.0655 99.5943 96.3623 98.89 94.9656C98.1855 93.5689 96.482 93.0075 95.0856 93.712L95.0698 93.7199C93.6731 94.4244 93.1199 96.1238 93.8242 97.5204C94.3214 98.5071 95.3215 99.0749 96.3582 99.0749Z" fill="black"/>
</svg>
