<svg width="128" height="128" viewBox="0 0 128 128" fill="none" xmlns="http://www.w3.org/2000/svg">
<path d="M18 98.368V72H14V98.368C11.678 99.196 10 101.396 10 104C10 107.308 12.692 110 16 110C19.308 110 22 107.308 22 104C22 101.396 20.322 99.196 18 98.368ZM16 106C14.896 106 14 105.104 14 104C14 102.896 14.896 102 16 102C17.104 102 18 102.896 18 104C18 105.104 17.104 106 16 106Z" fill="#52BE41"/>
<path d="M28 72C24.692 72 22 74.692 22 78C22 80.604 23.678 82.804 26 83.632V110H30V83.632C32.322 82.804 34 80.604 34 78C34 74.692 31.308 72 28 72ZM28 80C26.896 80 26 79.104 26 78C26 76.896 26.896 76 28 76C29.104 76 30 76.896 30 78C30 79.104 29.104 80 28 80Z" fill="#52BE41"/>
<path d="M106 98.368V72H102V98.368C99.678 99.196 98 101.396 98 104C98 107.308 100.692 110 104 110C107.308 110 110 107.308 110 104C110 101.396 108.322 99.196 106 98.368ZM104 106C102.896 106 102 105.104 102 104C102 102.896 102.896 102 104 102C105.104 102 106 102.896 106 104C106 105.104 105.104 106 104 106Z" fill="#52BE41"/>
<path d="M116 72C112.692 72 110 74.692 110 78C110 80.604 111.678 82.804 114 83.632V110H118V83.632C120.322 82.804 122 80.604 122 78C122 74.692 119.308 72 116 72ZM116 80C114.896 80 114 79.104 114 78C114 76.896 114.896 76 116 76C117.104 76 118 76.896 118 78C118 79.104 117.104 80 116 80Z" fill="#52BE41"/>
<path d="M88 66C87.21 66 86.46 66.162 85.768 66.44C85.078 63.89 82.766 62 80 62C78.458 62 77.064 62.602 76 63.56C74.936 62.6 73.542 62 72 62C71.296 62 70.628 62.144 70 62.368V45.158C78.316 42.802 84.47 35.71 85.74 27.24L94.196 31.892C89.238 35.534 86 41.39 86 48C86 59.028 94.972 68 106 68C117.028 68 126 59.028 126 48C126 36.972 117.028 28 106 28C103.258 28 100.642 28.556 98.26 29.56L85.938 22.782C85.302 11.22 75.72 2 64 2C52.28 2 42.698 11.22 42.062 22.784L29.74 29.56C27.358 28.556 24.744 28 22 28C10.972 28 2 36.972 2 48C2 59.028 10.972 68 22 68C33.028 68 42 59.028 42 48C42 41.388 38.762 35.534 33.802 31.89L42.26 27.238C43.53 35.716 49.68 42.804 58.002 45.16V82.026C58.002 82.936 57.792 83.848 57.39 84.664L55.712 76.276C54.51 70.272 49.194 65.914 43.072 65.914C40.278 65.914 38.002 68.19 38.002 70.984C38.002 71.988 38.296 72.96 38.854 73.796L40.912 76.884C41.674 78.026 42.166 79.35 42.336 80.712L43.72 91.778C43.948 93.624 44.532 95.378 45.394 96.872L52 110.46V114H48V126H92V114H88V110.666L91.2 106.4C93.006 103.994 94 101.012 94 98V72C94 68.692 91.308 66 88 66ZM106 64C102.402 64 99.09 62.792 96.416 60.782C98.666 57.798 102.206 56 106 56C109.794 56 113.334 57.798 115.584 60.782C112.91 62.792 109.598 64 106 64ZM100 46C100 42.692 102.692 40 106 40C109.308 40 112 42.692 112 46C112 49.308 109.308 52 106 52C102.692 52 100 49.308 100 46ZM106 32C114.822 32 122 39.178 122 48C122 51.786 120.672 55.266 118.464 58.008C116.88 56.036 114.872 54.482 112.602 53.452C114.67 51.618 116 48.974 116 46C116 40.486 111.514 36 106 36C100.486 36 96 40.486 96 46C96 48.974 97.33 51.618 99.398 53.452C97.128 54.484 95.12 56.036 93.536 58.008C91.328 55.266 90 51.786 90 48C90 39.178 97.178 32 106 32ZM22 64C18.402 64 15.09 62.792 12.416 60.782C14.666 57.798 18.206 56 22 56C25.794 56 29.334 57.798 31.584 60.782C28.91 62.792 25.598 64 22 64ZM16 46C16 42.692 18.692 40 22 40C25.308 40 28 42.692 28 46C28 49.308 25.308 52 22 52C18.692 52 16 49.308 16 46ZM38 48C38 51.786 36.672 55.266 34.464 58.008C32.88 56.036 30.872 54.482 28.602 53.452C30.67 51.618 32 48.974 32 46C32 40.486 27.514 36 22 36C16.486 36 12 40.486 12 46C12 48.974 13.33 51.618 15.398 53.452C13.128 54.484 11.12 56.036 9.536 58.008C7.328 55.266 6 51.786 6 48C6 39.178 13.178 32 22 32C30.822 32 38 39.178 38 48ZM46 24C46 14.074 54.074 6 64 6C73.926 6 82 14.074 82 24C82 28.034 80.63 31.814 78.316 34.864C76.67 31.546 73.944 28.934 70.628 27.43C72.68 25.598 74 22.962 74 20C74 14.486 69.514 10 64 10C58.486 10 54 14.486 54 20C54 22.962 55.32 25.598 57.372 27.43C54.054 28.934 51.328 31.548 49.682 34.866C47.368 31.818 46 28.038 46 24ZM70 20C70 23.308 67.308 26 64 26C60.692 26 58 23.308 58 20C58 16.692 60.692 14 64 14C67.308 14 70 16.692 70 20ZM52.724 38.006C54.4 33.248 58.856 30 64 30C69.14 30 73.596 33.248 75.276 38.002C73.524 39.42 71.504 40.526 69.28 41.208C68.27 39.31 66.296 38 64 38C61.704 38 59.73 39.31 58.722 41.208C56.496 40.526 54.476 39.422 52.724 38.006ZM88 122H52V118H88V122ZM90 98C90 100.15 89.29 102.282 88 104L84 109.334V114H56V109.54L48.928 95.006C48.268 93.856 47.852 92.606 47.688 91.288L46.304 80.22C46.058 78.246 45.346 76.326 44.24 74.67L42.18 71.58C42.062 71.404 42 71.198 42 70.984C42 70.394 42.48 69.916 43.07 69.916C47.292 69.916 50.958 72.922 51.788 77.062L54.36 89.916H59.236L60.944 86.498C61.634 85.118 62 83.57 62 82.028V44C62 42.896 62.896 42 64 42C65.104 42 66 42.896 66 44V68V76H70V68C70 66.896 70.896 66 72 66C73.104 66 74 66.896 74 68V76H78V68C78 66.896 78.896 66 80 66C81.104 66 82 66.896 82 68V72V76H86V72C86 70.896 86.896 70 88 70C89.104 70 90 70.896 90 72V98Z" fill="#26611D"/>
</svg>
